<svg version="1.1" id="Layer_1" xmlns="http://www.w3.org/2000/svg" x="0" y="0" width="300" height="300" xml:space="preserve"><style>.st2{fill:#e8e9e9;stroke:#e8e9e9;stroke-width:6.583172e-02}</style><path d="M189.5 14.1c1.8-.7 3.8-.6 5.7-.7 11 .1 22.1.1 33 .1 3.6-.3 7.1 2.7 7 6.3.1 7.2-.1 14.5.1 21.8.3 4.7-1.6 9.1-2.7 13.6-1.3 4.8-3.9 9.4-3.7 14.5.1 13.3 0 26.7 0 40.1 15 0 30.1.1 45.1-.1 1.8-.1 3.4.4 4.9 1.3 6.3 4.1 13.3 7.1 19.7 11.2 1.7 1.1 2 3.2 2 5-.1 37.4-.1 74.9-.1 112.3-.2 5.8.4 11.5-.2 17.2-1.2 2.2-3.4 3.7-5.1 5.5-6.7 5.9-13.4 11.9-20.1 17.8-3.2 2.8-6.3 6.8-11 6.5H177c-3.8 0-8.1.7-11.3-2-7.9-6.4-16.3-12.2-24.2-18.6-.7-.6-1.5-1.1-2.4-1.1-5.9-.4-11.7.1-17.5.6-8.5.1-16.9 0-25.4-.1-.1 4 .1 8 0 12 0 1.8-1.4 3.2-2.2 4.8-2.2.4-4.5.8-6.8.8-26.2-.1-52.5 0-78.7 0-2.5-.1-5.5-.7-6.7-3.2-1.5-3.4-.8-7.2-1-10.9V129.1c.1-2.2.3-4.5 1.3-6.4 1.3-2.2 4.1-2.6 6.5-2.7 25.7 0 51.5.1 77.2-.1 2.6.1 5.6-.4 7.9 1.3 1.1 1 2.6 2 2.5 3.7.3 4.7 0 9.5.1 14.2 15.9-1.6 30.9-9.5 41.7-21.1 3.2-2.7 4.6-6.9 6.2-10.6 3.9-7.7 7.3-15.6 11.1-23.4 4-9 8.5-17.8 12.5-26.8 3-6 5.3-12.3 8.5-18.2 3-6.4 5.9-12.8 8.9-19.2 1-1.9 1.7-4.8 4.3-5.7m3.4 19.3c-1.7 2.5-2.9 5.3-4.1 8-1.3 3.5-3.9 6.5-4.5 10.3-.4.4-.8.9-1.3 1.4-1.8 4.5-4.3 8.6-5.8 13.3-2.6 4.1-3.9 9-6.5 13.1-1.8 2.8-2.8 6-4.4 9-1.5 2.7-2.1 5.8-3.4 8.6-1.5 3.7-4.1 6.9-5 10.8-.8 2.6-2.5 4.7-3.7 7.1-1.5 2.5-1.6 5.8-3.9 8-2.5 3.4-5.8 6-8.8 8.8-2.6 1.5-4 4.5-6.8 5.8-2.8 2-5.9 3.5-8.7 5.5-2.4 1.8-5.4 2.1-8.1 3.1-2.6.8-4.7 2.5-7.4 2.9-4.3 1-8.7 2-13.1 2.2-2 1.7-1.3 4.4-1.4 6.7.1 31.7 0 63.3.1 94.9 7.3-.1 14.5-.2 21.8-.1 6.3.1 12.6-1.3 19-.9 3.4-.3 7 .1 9.8 2.2 4.4 3.4 8.6 7 13.1 10.2 3.7 3.5 8.2 5.8 11.7 9.5 14.7.1 29.4 0 44 .1 16-.1 32 .1 48.1-.1 3.4-2.7 6.5-5.8 9.6-8.8 2.9-2.2 5.7-4.6 8.2-7.2 2-2.2 5-3.7 6.2-6.5.6-2.2.3-4.6.3-6.8-.2-9.5.4-19-.3-28.4.2-27.5-.1-55.1.1-82.6-.1-1.2 0-2.5-.6-3.6-3.4-1.7-6.7-3.5-9.8-5.8-3.6-2.2-7.9-2.9-12.1-2.7-12.4.1-24.8-.1-37.2.1-3.4.6-6.7.1-10-1.1-1.9-4-2.2-8.6-2-12.9 0-12.6 0-25.3-.1-37.9.1-5.3 2.5-10.2 3.7-15.3 1.5-2.9 2.2-6.1 2.8-9.3 0-5.3.2-10.6-.5-15.9.4-1.2.5-2.5.6-3.7-8.6-.2-17.1.1-25.6-.2-1.4 2.6-2.9 5.4-4 8.2M13.2 132.7c-.1 7.6-.4 15.2.1 22.8.1 2.1.2 4.1.2 6.2 0 36.2.1 72.5 0 108.6h69.8c-.1-36.2.1-72.4 0-108.6 0-2 .1-4.1.2-6.2.5-7.6.2-15.2.1-22.8-23.4-.2-46.9-.2-70.4 0z" fill="#30418f" stroke="#30418f" stroke-width=".066"/><path d="M192.9 33.4c1.1-2.9 2.7-5.6 4.2-8.3 8.6.4 17.1 0 25.6.2-.1 1.3-.1 2.5-.6 3.7-4.8 6.6-9 13.6-13.6 20.3-2.1 3.1-4.4 6.2-4.8 10.1-.6 5.2-.7 10.4-1.3 15.7-1.3 10.3-1.6 20.6-2.9 30.8-.4 2.8-.7 5.6-.4 8.5 2 1.5 4.5 2 6.9 2.7 4.1.9 8.1 2 12 3.3 3.2 1.1 6.6 1.6 10 1.1 12.4-.2 24.8 0 37.2-.1 4.2-.1 8.5.6 12.1 2.7 3.1 2.2 6.5 4.1 9.8 5.8.6 1.1.5 2.4.6 3.6-.2 27.6.1 55.1-.1 82.6-7.4 6.9-15 13.6-22.1 20.9-2.7 2.5-5 5.9-8.5 7.4-4.4 1.1-9.1.4-13.6.4-7.5-.4-15 .8-22.5.8-8-.4-15.9.9-23.9.8-7 .1-14-.8-21.1-.8-2.6.1-5.3-.4-7.5-2-5.5-3.9-11.1-7.7-16.6-11.6-2.5-1.9-5.7-2.7-8.8-2.7-15.2.3-30.3 0-45.4.1.1-21.5 0-42.9 0-64.4.1-4.6.1-9.1-.4-13.7 4.4-.3 8.8-1.3 13.1-2.2 2.7-.4 4.8-2.2 7.4-2.9 2.7-1 5.8-1.3 8.1-3.1 2.8-2 5.9-3.5 8.7-5.5 2.8-1.3 4.2-4.2 6.8-5.8 3-2.9 6.3-5.5 8.8-8.8 2.2-2.2 2.3-5.5 3.9-8 1.2-2.4 2.9-4.5 3.7-7.1.8-3.9 3.5-7.1 5-10.8 1.3-2.7 1.9-5.9 3.4-8.6 1.6-2.9 2.6-6.2 4.4-9 2.7-4.1 3.9-9 6.5-13.1 1.5-4.6 4-8.8 5.8-13.3.4-.5.8-1 1.3-1.4.6-3.8 3.2-6.8 4.5-10.3 1.3-2.7 2.6-5.4 4.3-8z" fill="#fff" stroke="#fff" stroke-width=".066"/><path class="st2" d="M208.6 49.4c4.6-6.7 8.8-13.7 13.6-20.3.7 5.3.5 10.6.5 15.9-.6 3.2-1.3 6.5-2.8 9.3-1.2 5.1-3.6 10-3.7 15.3.1 12.6.1 25.3.1 37.9-.3 4.4.1 8.9 2 12.9-3.9-1.3-7.9-2.4-12-3.3-2.4-.7-4.9-1.1-6.9-2.7-.4-2.9 0-5.7.4-8.5 1.3-10.3 1.6-20.6 2.9-30.8.6-5.3.6-10.5 1.3-15.7.2-3.8 2.5-6.9 4.6-10z"/><path d="M13.2 132.7c23.5-.1 47-.1 70.5 0 .1 7.6.4 15.2-.1 22.8-23.4.1-46.8.1-70.2 0-.6-7.7-.3-15.3-.2-22.8z" fill="#7e8fbe" stroke="#7e8fbe" stroke-width=".066"/><path class="st2" d="M96 158.1c.1-2.2-.6-5 1.4-6.7.5 4.6.4 9.1.4 13.7 0 21.5.1 42.9 0 64.4 15.2-.1 30.3.1 45.4-.1 3.2-.1 6.3.8 8.8 2.7 5.5 3.9 11 7.7 16.6 11.6 2.2 1.6 4.9 2.1 7.5 2 7.1-.1 14.1.9 21.1.8 8 .1 15.9-1.2 23.9-.8 7.5 0 15-1.1 22.5-.8 4.5-.1 9.1.7 13.6-.4 3.5-1.5 5.8-4.9 8.5-7.4 7-7.3 14.6-14 22.1-20.9.6 9.4.1 18.9.3 28.4 0 2.2.3 4.6-.3 6.8-1.3 2.8-4.2 4.4-6.2 6.5-2.5 2.7-5.3 5-8.2 7.2-3.2 3-6.2 6.1-9.6 8.8-16.1.3-32.1 0-48.1.1-14.7-.1-29.4.1-44-.1-3.4-3.7-8-6-11.7-9.5-4.5-3.2-8.8-6.7-13.1-10.2-2.8-2-6.4-2.5-9.8-2.2-6.3-.4-12.6 1.1-19 .9-7.3-.1-14.5 0-21.8.1-.3-31.7-.1-63.3-.3-94.9z"/><path d="M13.3 155.4c23.4.1 46.8.1 70.2 0-.1 2.1-.2 4.1-.2 6.2.1 36.2-.1 72.5 0 108.6H13.5c.1-36.2 0-72.4 0-108.6 0-2.1-.1-4.1-.2-6.2z" fill="#6276ae" stroke="#6276ae" stroke-width=".066"/></svg>